<?xml version="1.0" encoding="utf-8"?>
<!-- Generator: Adobe Illustrator 22.1.0, SVG Export Plug-In . SVG Version: 6.00 Build 0)  -->
<svg version="1.1" id="Layer_1" xmlns="http://www.w3.org/2000/svg" xmlns:xlink="http://www.w3.org/1999/xlink" x="0px" y="0px"
	 viewBox="0 0 1024 768" style="enable-background:new 0 0 1024 768;" xml:space="preserve">
<style type="text/css">
	.st0{fill:#FFFFFF;}
</style>
<g>
	<circle cx="524.5" cy="383.5" r="371.5"/>
	<g>
		<g>
			<g>
				<g>
					<path class="st0" d="M885.4,383.5c1.4,1.2,4.5,0.5,3.8-2.8l-5.4-2.3L885.4,383.5z"/>
					<path class="st0" d="M894.4,360.8c-2.9-3.8-7.7-7.9-12.4-5.1c5.4,3.4,3.3,4.5,9.7,8.3c0.8,3.3-1.5,5.9-3.5,5.4
						c1.4,1.1-1,5.2,2.3,6.9c2-2.2,3-4.7,3.1-7.4c0-1.3-0.2-2.7-0.6-4.1c-0.5-1.4-1.2-2.8-2.2-4.2
						C891.9,359.4,893.4,360.6,894.4,360.8z"/>
					<path class="st0" d="M744.1,74.8l1.4,1.8C745.3,76,744.8,75.4,744.1,74.8z"/>
					<path class="st0" d="M549.8,2.6c1.6,0,2.3-0.5,2.4-1C550.7,1.9,549.5,2.1,549.8,2.6z"/>
					<path class="st0" d="M513.7-3.9c0.8,0.1,1.4,0.2,2.2,0.3C515-4.1,514.2-4.3,513.7-3.9z"/>
					<path class="st0" d="M744.1,74.8l-3.6-4.6C739.2,71.4,742.1,72.9,744.1,74.8z"/>
					<path class="st0" d="M876.3,317.9c0.4,1,1.1,1.9,1.9,2.6c-0.4-0.9-0.7-1.7-1-2.6C876.8,318,876.6,318,876.3,317.9z"/>
					<path class="st0" d="M815.3,134.1l1.1,1.3c0.8,0,1.7-0.1,2.6-0.3L815.3,134.1z"/>
					<path class="st0" d="M857.3,192c-0.6-1.5-4.8,0.3-6.8,0.7c2-0.2,3.4,0.4,4.4,1.5C855.7,193.8,856.4,193.1,857.3,192z"/>
					<path class="st0" d="M891,299.2l1,1.8C891.8,300.5,891.4,299.7,891,299.2z"/>
					<path class="st0" d="M780.1,96.8c0.4-0.6,0.6-1.2,0.6-1.6C780.3,95.6,780.2,96.1,780.1,96.8z"/>
					<path class="st0" d="M866.7,458.8c0.3,0.1,0.5,0.1,0.8,0.2C867.1,458.5,866.8,458.3,866.7,458.8z"/>
					<path class="st0" d="M897.2,383.5l0.2,1.1c0.8,0.1,1.7,0.2,2.5,0.3L897.2,383.5z"/>
					<path class="st0" d="M446.2-2.1c0.1,0,0.2,0,0.3,0C448.2-2.9,447.2-2.6,446.2-2.1z"/>
					<path class="st0" d="M143.2,466c1.2-3.8,3.1-1.3,4.9,0.7c1.9,2,3.6,3.6,4.7-1.9c-0.8,0.7-3-1.3-5.1-2.2
						C145.6,461.6,143.5,461.5,143.2,466z"/>
					<path class="st0" d="M876.6,316.1c-0.2-0.9-0.4-1.8-0.5-2.7C876.1,314.7,876.3,315.5,876.6,316.1z"/>
					<path class="st0" d="M152.8,464.8L152.8,464.8l0.2-1.1C152.9,464.2,152.9,464.4,152.8,464.8z"/>
					<path class="st0" d="M304.6,60.6c0.7,0.5,1.5,0.6,2.4,0.7C306.7,60.9,306.1,60.7,304.6,60.6z"/>
					<path class="st0" d="M410.3,16.4l-2.9,0.3C408.6,16.8,409.5,16.7,410.3,16.4z"/>
					<path class="st0" d="M262.1,102.7c-1.3,0.8-2.1,0.7-3.2,2.6c0.3,0,0.5,0,0.8,0C259.8,104.3,260.4,103.4,262.1,102.7z"/>
					<path class="st0" d="M220.7,148.2c0.5,0,0.9-0.2,1.4-0.3c0.3-0.5,0.7-1.1,1-1.7L220.7,148.2z"/>
					<path class="st0" d="M793.5,611.3c1.8-0.1,3.4,0.2,4.8,0.6C795.2,610.5,799.8,603.6,793.5,611.3z"/>
					<path class="st0" d="M878.8,317.5c-1.2-0.1-1.8-0.5-2.2-1.3c0.2,0.6,0.4,1.2,0.6,1.8C877.8,318,878.5,317.9,878.8,317.5z"/>
					<path class="st0" d="M284.7,130.2l-6.9,5.6C279.9,134.5,282.4,132.4,284.7,130.2z"/>
					<path class="st0" d="M426.9,722.9l2.1,0C428.3,722.6,427.5,722.6,426.9,722.9z"/>
					<path class="st0" d="M260.4,155.7c-2.2,0.2-4,0.8-5.7,1.8c0,0.5,0,1,0.2,1.5L260.4,155.7z"/>
					<path class="st0" d="M798.3,612C798.3,612,798.3,611.9,798.3,612C798.3,611.9,798.3,612,798.3,612z"/>
					<path class="st0" d="M823.3,557.7c-4.3,7.2,3,6.4,5,9.7c-4.1,9.5-6.2,1.7-10.7,3c-1,3.1-1.1,6.4-1.2,9.4c-0.2,3-0.6,5.7-2,7.6
						c-1-0.3-1.8,0.3-2.2-1.3c0,2-0.7,4.1-1.8,6.2c-0.5,1-1.2,2.1-1.8,3.2c-0.7,1-1.5,2.1-2.2,3.1c-3.1,4.2-6,8.6-6.2,13.5
						c-0.8,0.1-1.4,0-1.8-0.2c3.1,0.9,5.6,2.7,7,4.3c-2.5,3-2,8-5.9,6.6c1.7-1.8,0.6-2.9,0.4-4.6l-1.4,4.2c-6.6-0.9,2.2-5.5-0.9-8.2
						c-1.9,3.6-3.5,7.9-5.3,11.8c-1.9,3.8-4.1,7.1-6.8,8.8c-4.8-2.9,8.5-11.6-0.6-9c1.3-0.9,2.7-1.8,4-2.7l3.8-2.9
						c-11.1-0.3,4.1-3.9-7-5c-1.1,1-2.1,2-2.9,2.9c-0.9,0.9-1.6,1.7-2.2,2.5c-1.3,1.6-2.2,3-3.1,4.5c-0.9,1.5-1.8,2.9-3.1,4.5
						c-0.7,0.8-1.3,1.6-2.3,2.4c-0.9,0.8-2,1.7-3.2,2.6c0.1,4.1,3.8,2.6,3.9,6.7c-2.2,4-4.6,6-6.9,6.9c-2.3,0.9-4.7,0.7-6.8,0.4
						c-4.3-0.5-7.9-1.3-10.3,5.6c-0.1,2.5,0.6,5.2,0.2,7.7c-0.4,2.5-2,4.8-6.7,6.2l-1.3-6.8c-4.8,3.4-4.8,6.2-5.2,8.6
						c-0.4,2.4-1.2,4.6-7.5,6.6c0.4-3.3,6.5-7.1,4.6-6.6c-9.4,0.7-2.6,6.1-7.7,9.8l-4.1-3.8c-2.5,1.9-5,3.9-7.5,6.2
						c-2.5,2.2-5,4.6-7.7,6.8c-5.3,4.4-10.7,9.2-16.9,12.7c0-1.8,1.3-4.4-2.4-4.4c-1.8,1.3-3.7,2.5-5.6,3.7c-1,0.6-2,1.2-3,1.7
						c-1,0.5-2.1,1-3.1,1.5c-4.2,1.9-8.6,3.6-13,5.1c-4.5,1.3-9.1,2.4-13.5,3.4c-1.1,0.2-2.2,0.5-3.3,0.7c-1.1,0.2-2.2,0.3-3.3,0.5
						c-2.2,0.3-4.4,0.6-6.5,0.9l-4.7,6.5c-1.5,0.4-3.3-1.2-2-2.5c-6.8,0.1,0.5,2.9-2,5.6c-3.6,1.4-5.5-1.2-3.7-3.2
						c-2.5,1.7-5.6,3.7-9.1,5.7c-3.5,1.8-7.5,3.5-11.5,4.9c-2,0.7-4,1.4-6.1,1.9c-2,0.5-4.1,0.8-6.1,1.1c-4,0.5-7.7,0.5-10.9-0.2
						l2.2-1.8c-1.2,0-2.3,0.2-3.2,0.4c-0.9,0.2-1.8,0.6-2.5,1.1c-1.5,0.9-2.7,2.2-3.8,3.4c-2.3,2.4-4.7,4.5-9.4,2.9l1.6-1
						c-2.6,0.1-5.3,0.1-8,0.2c-2.7,0.1-5.4,0.3-8.1,0.5c-1.3,0.1-2.7,0.2-4,0.3c-1.3,0.1-2.7,0.1-4,0.2c-2.7,0.1-5.3,0.2-7.9,0.2
						c-2.6,0-5.2,0.1-7.7,0c-2.5-0.2-5-0.5-7.3-0.8c-2.4-0.4-4.7-0.9-6.8-1.5c-1.1-0.3-2.2-0.7-3.2-1c-1-0.4-2-0.9-3-1.4
						c-1.7,3.3-6.9,2.1-11.8,1.3c-1.2-0.2-2.4-0.4-3.6-0.5c-1.1-0.1-2.2-0.2-3.2,0c-1.9,0.3-3.4,1.2-4,3.5
						c-5.7-3.1-7.6-4.9-10.1-6.6c-2.5-1.8-5.6-3.6-13.4-6.6c-4.3-1.1-7.7,4.4-13.3,4.2l1-4.8l-8.5,3.3c-0.8-2.2-1.6-4.5-2.4-6.7
						L429,723c1.9,0.8,3.6,3.3,3,4.6c-4.2,0-8.8-2.2-12.2-4.7c-3.4-2.6-5.5-5.5-5.2-6.7l-9.7-1.1c-1.6-0.1-3.2-0.4-4.8-0.7l-4.8-0.8
						c1.1-1.7,4.3-1.2,7.1-1.4c-11.3,1,0.2-5.5-10.1-4.6c0.7,1.5-1.7,2.5-2.3,3.3c-0.8-1.1-2-2.1-3.5-3.3c-1.5-1.1-3.2-2.1-5-3.1
						c-1.9-1-3.9-1.9-5.9-2.6c-1-0.4-2-0.7-3-1.1c-1-0.3-2-0.7-2.9-1l2.8-2.4c-3-1.8-6.2-3.4-9.5-5c-1.7-0.8-3.4-1.6-5.1-2.3
						c-1.7-0.8-3.4-1.7-5.1-2.5c-3.4-1.7-6.9-3.3-10.4-5.2c-3.4-1.9-6.8-3.9-10.1-6.1c3.9,4.4-0.3,8.7-4.7,6.6l1.3-5.4
						c-4.4,1,3.1,4.3-4.4,4.2c-4.6-4,0.1-7.2,3.8-6.6l-6.9-2.7c0.6-1.5,2.4-1.2,3.9-2.6c-2.1,0.5-3.9-2.4-5.9-5.1
						c-1-1.4-2.2-2.6-3.4-3.5c-1.2-0.9-2.6-1.3-4.3-0.9l0.6-1.5c-3.1-2.4-5.8-4.4-8.3-6.2c-2.5-1.8-4.7-3.5-6.9-5.1
						c-2.2-1.6-4.3-3.1-6.5-4.7c-2.2-1.6-4.3-3.6-6.7-5.7c-3.3,3.1-6.2-1.1-11.6-1.2c-2.8-4-5.4-8.5-8.3-13
						c-0.4-0.6-0.7-1.1-1.1-1.7c-0.4-0.6-0.7-1.2-1.1-1.8c-0.7-1.2-1.5-2.3-2.3-3.5c-1.6-2.3-3.3-4.5-5.3-6.6
						c-0.9-0.6-1.6-1-2.2-1.3c-0.6-0.3-1.1-0.5-1.5-0.6c-0.8-0.2-1.3,0-1.7,0.3c-0.8,0.6-1.3,1.7-3.5,1.1c2.8-3.1-4.6-11.9,1.4-9
						c-1.1-1.3-2.2-2.5-3.1-3.6c-1-1.1-1.9-2.1-2.6-3.1c-1.6-2-3.1-3.8-4.7-5.6c-1.6-1.8-3.4-3.7-5.6-5.9c-2-2.3-4.5-4.9-7.6-8.2
						c-0.4,2.5,0.2,4.7-1.6,4.5c-2.3-2.4-2.5-7.1-0.6-7.7l0.8,0.5c-1-0.8-1.9-1.7-2.8-2.7c-0.8-1-1.6-2.1-2.3-3.2
						c-1.4-2.2-2.6-4.7-3.7-7.2c-0.5-1.3-1-2.6-1.5-3.9c-0.5-1.3-0.8-2.7-1.2-4.1c-0.7-2.7-1.3-5.5-2-8.2
						c-1.4-5.4-2.2-10.7-3.9-15.3c-0.8-2.3-1.8-4.4-3-6.3c-1.1-1.9-2.5-3.6-4.2-5l0.7,0.7l-5-6.7c-0.8-1.1-1.7-2.2-2.5-3.4l-2.3-3.5
						c-1.7-7.3,4.3,3.2,5-2.8c-3-3.5-5-7-6.5-10.3c-1.3-3.4-2-6.7-2.6-9.9c-0.3-1.6-0.6-3.2-0.9-4.7c-0.2-0.8-0.3-1.6-0.5-2.3
						c-0.1-0.8-0.3-1.6-0.5-2.4c-0.7-3.2-1.8-6.3-3.8-9.6c1.2-1.7,1.9-3.5,2.3-5.5c0.5-2,0.6-4.1,0.5-6.3c-0.1-2.2-0.4-4.5-0.9-6.9
						c-0.2-1.2-0.5-2.4-0.8-3.6c-0.3-1.2-0.5-2.5-0.8-3.7c-1-5-2.2-10.2-2.7-15c-0.3-4.9,0-9.5,1.6-13.3l-2.8,1
						c-3.1-3.7,1.2-4.7,1.8-7.6c-2.2,0.5-2.5,4.3-4.1,2c-0.5-4.1-0.9-8.2-1.1-12.4l-0.1-3.1c0-1-0.1-2.1,0-3.1
						c0.1-2.1,0.2-4.2,0.3-6.3c0.1-2.1,0.3-4.2,0.4-6.3c0.2-2.1,0.3-4.2,0.7-6.3c0.6-4.2,1.4-8.4,2.1-12.6l0.6-3.1l0.8-3.1l1.5-6.2
						l1.6-6.2l0.4-1.5l0.5-1.5l0.9-3c1.2-4.1,2.5-8.1,3.6-12.1c1.4-4,2.7-7.9,3.9-11.9c1.6-5.8-1.3-8.3-3.6-11.2
						c-2.2-2.8-3.6-5.9,1.8-12.4c1.3,1.9,2.6,3.9,3.9,5.7c0-1.6,0.1-3.2,0.3-4.7c0.2-1.6,0.5-3.1,0.8-4.6c0.6-3.1,1.3-6.1,2.1-9.2
						c0.8-3.1,2-6,3.1-8.9c1.1-2.9,2.3-5.8,3.5-8.8c1.2-2.9,2.7-5.7,3.9-8.5c1.3-2.8,2.5-5.7,3.7-8.6c1.3-2.8,2.5-5.7,3.6-8.6
						c0.5-1.4,1.1-2.9,1.5-4.4c0.2-0.7,0.5-1.5,0.7-2.2l0.7-2.2c0.4,1.8,1.7,2.6,0.6,4.7c0.7-0.3,1.4-0.9,2-1.5
						c0.7-0.6,1.3-1.4,1.8-2.2c1.1-1.7,2.1-3.7,2.7-5.6c1.3-3.9,1.6-7.8,0.3-8.7c2.4-3,2.9,0.7,5.5-0.4c2.3-1.5,3-4.9,3.7-7.9
						c0.7-3,1.4-5.7,3.8-5.7c0.8,0,0.2,1.9-0.1,2.8c0.4-3.8,9.3-12.3,3.9-12.3c0.9-0.8,1.7-1.6,2.4-2.4c0.4-0.4,0.7-0.9,1-1.3
						c0.4-0.4,0.7-0.9,1-1.3c1.3-1.7,2.4-3.5,3.5-5.3c1.1-1.8,2.2-3.5,3.4-5c0.6-0.8,1.2-1.5,1.9-2.1c0.7-0.6,1.5-1.2,2.4-1.7
						c-0.3-3.4,2.7-6,5.2-8.4c1.3-1.2,2.4-2.4,3-3.6c0.6-1.2,0.7-2.5-0.4-3.9c4.9,5.4,15.1-7.6,17.1-13.9c0.1,2.9,5.2-1.8,5.6,1.9
						c4.5-4.7,8.3-9.4,5-11.5c7.5-0.7,10.8-6.1,14.2-10.4c1.7-2.2,3.3-4.3,5.3-5.6c1-0.6,2-1,3.2-1.1c1.2-0.1,2.6,0.2,4.1,0.8
						c3.4-3.6,6.8-7.1,10.1-10.5c3.5-3.2,7-6.4,10.6-9.4c0.9-0.8,1.8-1.5,2.7-2.3c0.9-0.7,1.8-1.4,2.7-2.1c1.8-1.4,3.7-2.8,5.5-4.1
						c1.8-1.4,3.7-2.7,5.5-4c1.9-1.2,3.8-2.4,5.7-3.7c0.7,1.7,0,3.1-1.4,4.4c-0.7,0.7-1.6,1.3-2.5,1.9c-0.9,0.6-1.9,1.3-2.9,1.9
						c-4,2.5-7.8,5-5.5,8.1c3.2-2.7,6-5.4,8.5-8c2.6-2.5,5.1-4.8,7.7-7.1c1.3-1.1,2.6-2.2,3.9-3.3c0.7-0.5,1.4-1.1,2.1-1.6
						c0.7-0.5,1.5-0.9,2.2-1.4c3.1-1.8,6.5-3.4,10.5-4.7c4.3-0.9-1,3.9-1.8,5.6c1.7-1.2,3.5-2.3,5.3-3.3c1.8-1,3.7-1.8,5.5-2.6
						c3.7-1.6,7.4-3,11.1-4.5c3.7-1.3,7.4-2.5,10.9-4c1.8-0.7,3.5-1.5,5.2-2.4c1.7-0.8,3.4-1.7,5.1-2.6c0.1,0.7-1.2,1.8-2.5,2.7
						c2.8-1,6.9-0.8,5.6-3.9l-2.5,1.6c-2.9-1.6-0.8-4.8,2.1-7.9c2.9-3.1,6.6-6.2,6.6-7.4c-2.6,10.3,15.3-1.1,10.1,12.3
						c1.7-1,3.8-3.1,2.9-5.1c3,0,4.1,1,1.8,4.1c2.5-1,4-2,5.2-2.8c1.1-0.8,1.8-1.5,2.5-2.2c1.3-1.3,2.6-2.4,7.4-3.3
						c0.2,1.6-1.6,2.5-2.2,4.5c2.1-1.9,4.2-3.9,6.9-5.4c0.7-0.4,1.4-0.7,2.1-1c0.7-0.3,1.5-0.5,2.3-0.7c1.7-0.4,3.5-0.5,5.6-0.5
						c-0.4,1,0.7,2.1-1.7,2.4c3.4-0.6,6.6-1.5,9.6-2.7c0.8-0.3,1.5-0.6,2.3-0.9c0.8-0.3,1.5-0.5,2.2-0.8c1.5-0.5,3-1.1,4.5-1.6
						c3-1,6.1-2,9.4-2.6c1.7-0.3,3.4-0.4,5.2-0.4c1.8,0,3.7,0.2,5.6,0.5c-4.4,7,5.3,2.1,6.2,8.1c1.4-0.3,2.7-0.7,4.1-1l4.1-0.8
						l-3.3-3c3.6,0.1,7-0.8,10.4-1.6c1.7-0.4,3.3-0.7,4.9-0.8c0.8,0,1.6-0.1,2.4,0.1c0.8,0.1,1.6,0.3,2.3,0.6l-2.8,1l-2.8,1.2
						c2.3-0.2,4.5-0.2,6.8-0.2l6.8,0l-7.5-2.8c7.6-2.5-0.3-7.6,9.4-5.2c-2.1,0.5,7.4,0.5,10.8,4.7c0,0,0,0,0,0
						c3.8-1.4,7.9-2.9,13.1-0.8c1.1,2.1-2.1,6.4-1.4,7.8c2.1-2.2,6.4-1.8,10.8-1.4c4.4,0.4,8.9,0.7,11.7-1.3
						c-1.7,0.9-2.4,3.9-2.1,4.7l3.8-3.3c3,2,3.4,2.8,2.3,5.1c9.7,3-1.4-8.1,9.6-2.2c-1,0.1-0.7,0.8-2.8,0.9c1.4,0.6,2.9,1,4.3,1.4
						c1.4,0.5,2.9,0.8,4.3,1.2c2.9,0.7,5.8,1.2,8.6,1.7c1.4,0.3,2.9,0.5,4.3,0.8c1.4,0.3,2.8,0.7,4.1,1.1c2.7,0.8,5.3,1.8,7.8,3.2
						c1.1,6.7-9.7-1.7-7.8,4.3c1.9,0.5,3.9,0.9,5.9,1.3c1,0.2,2,0.4,3,0.6l1.5,0.3l1.5,0.3c4,0.8,8.2,1.6,12.3,2.4
						c4.1,0.7,8.1,2,12,3.2c1.9,0.7,3.8,1.4,5.7,2.2c0.9,0.4,1.8,0.8,2.7,1.2c0.9,0.5,1.7,1,2.5,1.5l-2.3-1.9c2.8-3.3,5-1,7.5,2.1
						c1.3,1.5,2.6,3.3,4.2,4.7c1.6,1.4,3.4,2.3,5.6,2.4c-2-0.4-4.5,2.9-3.5,2.3c4.3,3.2,9.2,5.5,15,7.6c2.9,1.2,5.9,2.4,9.2,3.7
						c1.7,0.7,3.4,1.3,5.1,2.1c0.9,0.4,1.8,0.7,2.7,1.1c0.9,0.4,1.8,0.9,2.7,1.3l-2.9,0.6c2,2.6,5.2,5.2,8.5,7.8
						c1.6,1.3,3.4,2.5,4.9,3.8c1.5,1.3,2.9,2.6,4.1,3.8c2.9-0.5,5.8,2.2,5.9-1.7c1.1,2.9,2.5,5.2,4,7.4c1.5,2.2,3.2,4.1,5,5.8
						c1.8,1.7,3.8,3.2,5.9,4.5l1.6,1l1.5,1c1,0.7,2.1,1.3,3.1,2c2.1,1.3,4.2,2.6,6.2,4c2,1.4,4,2.8,5.6,4.5
						c3.4,3.3,6.1,7.3,7.4,12.4c-1.6-1.6-5-2.5-3.8-1.2l3.1,2.5c1,0.8,2,1.7,3,2.6l5.9,5.3c2-3.4,0.3-3,0.3-7.5
						c3,0.1,7.2,2.4,9.9,5.5c-3.3-2-4.4-1-4.7,0.9c-0.2,1.9,0.4,4.7,0.5,6.6c0.6-1.1,2.2-1.1,2.9-2c0,10.7,6.7-3.5,10.3,8.2
						l-1.9,0.7c0.9,0.7,1.8,1.3,2.7,1.9c0.9,0.6,1.8,1.2,2.7,1.9c1.8,1.3,3.4,2.8,4.6,4.8c-2.4,4-4.3-2.6-7.3-0.7
						c2,2.5,5.5,4,8.5,5.7c3.1,1.7,5.4,3.8,5.2,7.5c-1.2-0.8-2.4-2.1-3.6-3.3c-1.1-1.3-2.4-2.4-3.7-3.2c-0.1,2-0.1,3.5,0,4.7
						c0.1,1.2,0.2,2.1,0.5,2.9c0.5,1.5,1.3,2.6,2.3,4.8l-0.2-0.4c1.3,3.5,2.7,6.8,3.8,10.3c0-1-0.2-2-0.3-3c3.5,0.2,5.7,1.2,7.5,2.6
						c1.8,1.4,2.9,3.2,4.1,5.1c1.1,1.9,2.2,4,3.7,6c1.4,2,3.3,3.9,6.2,5.5c-5.5-3.2-6.6-3-6.9-2c-0.3,1,0.2,3-2.1,3.8
						c0.1,3.1,0.6,7.4-1.2,7c2.9,1.4,3.2,3.6,3.7,5.9c0.5,2.4,1.3,4.9,5.3,6.9c-1.3,0.9,2.1,5-2,5.5c3.8,5.4,1.9-2.5,3.9-2.8
						c4.7,3.5,5.2,9.8,6.4,16.4c0.3,1.6,0.6,3.3,1,4.9c0.3,1.7,0.7,3.4,1.3,5c1.1,3.3,2.9,6.5,5.8,9.4c0.9,1.4,1.7,2.6,2.4,3.7
						c0.8,1.1,1.5,2.1,2.3,3c1.5,1.8,3,3.4,4.5,4.9c1.5,1.5,2.9,3,4.4,4.8c1.4,1.8,2.7,4,4,6.8c-0.8,2.3-2.3,1.8-3.7,0.7
						c-1.4-1-2.6-2.6-2.6-2.6c-0.4,3.4-0.2,6.3,0.5,9c0.7,2.7,1.9,5.2,3.2,8.1c-1.6-1-2.5,0.5-3.9,2.7c1.2,4.7,6.2,2.2,5,8.9
						c-1.9-0.8-4.9-1.7-7-3.7c1.2,2.7,2.8,5.3,4.3,7.9c1.4,2.7,2.9,5.4,3.9,8.3c-2.5,1.9-4.5-3-6.6-4.8c2,6.3,4.7,16.6,8.9,18.3
						l1.2-4.4c0.4,2.4-3.5,1.6-4.5-0.1c-4.1-5.3,0.4-8.3,2-8.9l1.5,4.1c4.3-2.7,3.4-7,1.3-11.6c-1-2.3-2.5-4.6-3.7-6.9
						c-1.2-2.3-2.2-4.6-2.4-6.7c2.4,0.8,4.8,1.5,7.2,2.3c-2.3-2.6-4.7-5.2-7-7.7c0.7-1.1,1.8-2.1,3.1-2.4c1.2-0.3,2.6,0.2,3.4,2.2
						c0.3-0.8,0.4-1.6,0.5-2.2c0-0.6,0-1.1-0.1-1.6c-0.2-0.9-0.6-1.5-1-2c-0.8-1.1-1.6-2.1-0.4-5.2c0.4-0.7,0.8-0.5,1.2,0l-3.3-5.5
						c1.6,0.8,4.3-2.1,4.3,1.8c0.3-2.9-0.1-5.4-0.9-7.6c-0.8-2.1-1.9-3.9-3-5.5c-2-3.2-3.7-5.5-1.8-8.2l0.6,0.8
						c-0.8-1.8-1.5-3.1-2.1-4.1c-0.6-1-1.2-1.6-1.7-2c-1-0.8-1.7-0.6-2.4-0.3c-1.5,0.6-3.4,1.8-7.9-2.6c3-3.7,6-7.4,8.9-11.2
						l-5.1,0.2c-0.4-1.5-1.2-4.6,0.8-4.7c-5.3-4.3-1.6,1.7-5.8-0.4c0.3-2.2-0.1-4.4-0.8-6.6c-0.4-1.1-0.8-2.2-1.3-3.3
						c-0.5-1.1-0.9-2.2-1.4-3.2c-1.9-4-3.2-7.6,0-10c-4.5-0.9,0.4,7.8-5.3,1.5c3.3-2.8,2-4.8,0-7.1c-2.1-2.2-5.1-4.6-4.9-8.6
						c4.8-0.1,5.8,6.9,6.1-1.1c-4.2-0.2-5.4-3.4-6-7.2c-0.3-1.9-0.6-3.8-1-5.7c-0.4-1.8-1-3.4-2.1-4.5c-2.6,1.3-4.7-1.1-7-4.9
						c-0.3-0.5-0.6-1-0.9-1.5c-0.3-0.5-0.6-1-1-1.5c-0.7-1-1.4-2.1-2-3.2c-1.4-2.1-3-4.3-4.7-6.1c1-0.3-0.7-4.7-3.6-9.9
						c-2.8-5.2-6.1-11.7-8.3-15.9l0.9-0.4c-2.9,1.1-5.6-0.4-8.2-2.8c-1.3-1.2-2.6-2.6-3.9-3.9c-1.3-1.4-2.7-2.7-4-3.8
						c2.8-2.1,4.8-2,8.4-0.1c-1.4-1.7-2.9-3.3-4.3-5c-2.5,0-4.5-0.8-7.8-3.6l4.4-1.7c-1.5-1.6-3.2-3.1-5-4.4c-1.9-1.3-3.9-2.6-5.8-4
						c-1.9-1.4-3.9-2.9-5.7-4.7c-0.9-0.9-1.8-1.9-2.6-2.9c-0.9-1-1.7-2.1-2.4-3.4c-1.7,1.3-2.1,4.8-3.4,7.3
						c-1.3,2.5-3.5,3.8-8.6,0.9c1.2-1.9,3.5-4.9,6.4-3.5c-0.9-0.5-3.8-1.1-4.6-3.2l6,0.5c-2.5-4.7-4.1,0.4-6.7-2.6
						c2.2-2.2-0.6-3.7,1.5-5.1c1,0.5,1.7,3.4,3.6,3.6c-1.5-1.8-2.9-4-3.9-6.1c-0.5-1.1-0.9-2.1-1.2-3c-0.3-0.9-0.4-1.8-0.4-2.6
						c-0.9,1.6-2.8,3.2-5.6,1.3c-6.7-5.5,0.2-4.8-2.6-9.4c-1.5,0.2-2.9-1.2-4.5-2c-1.5-0.8-3-1.2-4.6,0.6c-2-1.6-1-3.6-1-5.2
						c-1.2-0.3-2.9-1.2-4.7-2.3c-1.8-1.1-3.7-2.5-5.6-3.4c-3.6-2-6.5-2.9-5.9,0.6l0.7,0.9c-0.2,0-0.4-0.2-0.7-0.3c0,0,0,0,0,0l0,0
						c-3.7-1.2-6.9-3-10-5.1c-0.8-0.6-1.5-1.1-2.3-1.6c-0.8-0.5-1.5-1.1-2.3-1.7c-1.5-1.2-3-2.4-4.4-3.6c-1.5-1.2-2.9-2.5-4.4-3.7
						c-0.7-0.6-1.5-1.2-2.2-1.8c-0.8-0.6-1.5-1.1-2.3-1.7c-3.1-2.2-6.3-4.1-9.7-5.5l0.8-1.4c-1.1-0.3-2.1-0.7-3.2-1.2
						c-1.1-0.4-2.2-0.8-3.3-1.2c-2.2-0.9-4.4-1.7-6.5-2.6c-4.2-1.6-8.2-3-11.8-2.7c-2.3-1.1-4.3-5.1-2.5-6.4
						c-3.3-0.8-5.3-0.9-7.4-1.6c-1.1-0.3-2.1-0.9-3.5-1.6c-1.3-0.7-2.9-1.8-4.9-3.2c7.3-0.1-1.2-3.1,7.2,0.7
						c-3.8-2.2-5.9-4.1-8.4-5.4c-1.2-0.6-2.6-1.1-4.2-1.4c-0.8-0.1-1.7-0.2-2.8-0.3c-1,0-2.1,0-3.4,0.1c4.4-2.8-4.5-6.9-8.9-7.1
						l4.9,4.7c-4.6-0.9-8.3-2.6-12.2-4.2l3.7-4.4c-1.9-1.5-3.9-2.5-5.9-3.3c-2-0.7-4.1-1.2-6.2-1.5c-4.1-0.6-8.2-0.6-12.2-0.3
						c-4,0.2-7.7,0.3-11.2-0.4c-1.7-0.4-3.4-1-5-1.9c-1.6-0.9-3.1-2.1-4.6-3.7c-5.4,2.8,9.1,4.3,4.1,7.8c-3.9-1.1-7.7-3.9-10.8-6.5
						c-3.1-2.6-5.6-5-6.9-5.2c-5.5-2.2-8.4-0.6-11.3,1.1c-1.5,0.9-3,1.7-4.8,2.2c-0.9,0.2-1.9,0.3-3,0.3c-1.1,0-2.4-0.2-3.8-0.5
						c1.3,2,2.2,7.2-6.5,8.3c-7.9-1.3-9.5-8.7-4.2-9.8c2,0,2.9,0.7,2.8,1.3c2.7-0.5,6.3-1,3.2-3.3l-1.2,1.8c-2-1.1-5.8-1.8-8.8-2.7
						c-3-0.8-5.2-1.5-3.8-3c-6.4,1.6-2.8,3,1.8,4.1C538.2-2.9,534-3,529.8-3c-2.1,0-4.2,0-6.5,0c-2.3,0-4.7-0.1-7.5-0.5
						c1.8,1,3.4,3.2,1.7,3.2c-8-1-9.8,0-10.8,1.3c-0.5,0.7-0.9,1.4-1.8,2.1c-0.9,0.7-2.3,1.3-5,1.8c-6.3-2.4,1.7-7.1-9-3.8
						c-6.8-1.4-1.9-4.9,0.7-6.7c-2.4,1.1-4.8,1.6-7.2,1.7c-2.3,0.2-4.6,0.1-6.7-0.2c-4.3-0.6-8.1-1.8-11.1-1.8l5.1-2.2
						c-3.1,1.3-5.7,1.6-8.3,2c1.2,1,2.4,2.2,3.6,3.3C466.3-3,465.6-3,464.9-3c-0.7,0-1.3,0-1.9,0c-1.1-0.1-1.8-0.4-1.9-1.2
						c-2.8,3,3.4,5.8-2.2,10.3c-2.2-0.6-5.2,0.5-7.9,1.1c-1.4,0.3-2.6,0.5-3.7,0.3c-1.1-0.1-2-0.6-2.6-1.8c0.8-0.1,1.5-0.2,2.1-0.3
						c0.6-0.1,1.1-0.1,1.5-0.2c0.8-0.2,1.4-0.4,1.6-0.7c0.6-0.5,0.2-1.2-0.3-1.9c-0.9-1.4-2.1-3.2,3.3-4.5c-2,1-4.6,1.4-7.8,1.3
						c-0.6-0.4,0.2-1.1,1-1.6c-13.3-1.7-4.5,6.8-17.1,9.6c0.5-1.6-0.6-2.7-2-3.3c-1.4-0.6-3.2-0.6-4.1,0c5.1-1.4,3.6,3.9-0.4,7.3
						c-8.5,0.1-8.1,4-12.3,4.9l5-0.3c-0.4,1.6-1.6,2.6-3.3,3.5c-1.7,0.9-4,1.9-6.5,3.2c-1.2-1.9,4.4-3.1,2.2-3.4
						c-2.2,3.4-6,3.3-10.1,3.1c-2.1-0.1-4.3-0.2-6.4,0.2c-2.1,0.4-4.1,1.2-5.9,2.8c-4.5-0.3-2.3-4.8-6.2-4.7c-2,1.8-3.7,2.7-5.3,3.2
						c-1.6,0.5-3,0.6-4.5,0.7c-3,0.2-6.1,0.3-10.3,3.9c4.4,2.2,4.4,1.2-0.7,7.6l14.6-9.5c-2.6,3.2-5.2,6.4-7.8,9.6
						c2.4-1,4.6-2.7,6.6-4.2c1-0.7,2-1.5,2.9-2c0.9-0.6,1.8-0.9,2.6-1c-1.8,2.4-2.7,3.4-2.6,4c0,0.6,0.9,0.8,2.7,1.7
						c-4.3-1.2-7.2,1-10,3.5c-1.4,1.2-2.8,2.5-4.5,3.5c-0.8,0.5-1.7,0.9-2.6,1.2c-0.9,0.3-1.9,0.5-3,0.5l-4-8.6
						c-3.2,0.5-6,1.6-8.5,3.1c-1.2,0.8-2.4,1.6-3.6,2.5c-0.6,0.5-1.2,0.9-1.7,1.4c-0.6,0.5-1.1,1-1.7,1.6c-2.2,2.1-4.5,4.3-7.2,6.4
						c-2.7,2.1-5.8,3.9-9.4,5.6c1.7-0.4,3.4-1,5.2-1.3c0,2.1-1.9,3.6-4.4,5c-2.5,1.4-5.4,2.8-7.1,4.8c-1.3-2.9-4.7-2.1-7.7-2.5
						c1.5,1.8-9.8,6.7-7.2,12.6c-2.7,0.3-5.5,0.5-8.2,0.9c-5.6,3.3-7.2,7.4-8.5,11.4c-0.3,1-0.7,2-1.1,3c-0.4,1-0.8,2-1.3,3
						c-1.1,2-2.6,3.9-5,5.7c0.6-5-5.2-3-0.5-10.3c-3.2,2.7-6.4,4.7-5,6.4c-1.6,0.1-3.1,2.7-4.7,5.5c-1.6,2.8-3.3,5.6-5.7,5.8
						c-0.3,2.2,1.6,5-1.9,8c-0.8-0.1-1.1-1.1-1.1-1.1c0.5,0.6-0.4,2.2-0.8,3.6c-0.3,1.5-0.2,2.8,2.5,2.6c-3.9,0.5-7.4,2.4-10.5,5
						c-1.6,1.3-3.1,2.7-4.6,4.3c-1.4,1.6-2.8,3.3-4.1,5c-2.7,3.4-5.3,6.7-8.1,9.4c-2.7,2.8-5.5,5-8.9,5.8c-1.2,1.9-2.4,3.9-3.7,6
						c-1.3,2.1-2.4,4.2-3.7,6.3c-1.2,2.1-2.5,4.1-3.7,6.1c-0.6,1-1.2,1.9-1.8,2.8c-0.3,0.5-0.6,0.9-0.9,1.4
						c-0.3,0.5-0.5,0.9-0.8,1.3c-0.5-1-1.3-0.9-0.2-2c-4.3,3.9-3.3,6.6-2.5,9.4c0.4,1.4,0.8,2.8,0.5,4.5c-0.2,0.8-0.5,1.7-1.1,2.6
						c-0.6,0.9-1.5,1.9-2.6,3.1c-3.8,1.5-3.6-0.3-2.8-2.2c0.8-1.9,2.1-3.7,0.2-2.5c-5-2-6.6,1.6-8.2,6.2c-1.6,4.6-3.2,10-7.8,12.5
						l0.4-2.2c-3.1,2.1-4.1,6.2-5,10.9c-1,4.6-1.4,10-4,14.8c0,0-0.6-0.9-1.4-0.7c0.4,2.2,0.5,4.7,0.4,7.4c-0.1,1.3-0.2,2.7-0.3,4.1
						c-0.1,1.4-0.3,2.8-0.5,4.3c-0.4,2.9-1,5.8-1.6,8.6c-0.3,1.4-0.7,2.8-0.9,4.1c-0.3,1.4-0.5,2.7-0.7,4c-2.8-4.4-0.5-5.1-5-4.7
						c-0.9,4.6,6.7,1,4.8,10c-3,2.1-7.1,7.7-11.4,7.3c0.3-1.4,0.8-2.8,1.2-4.2l1.3-4.2c-3.4,1.2-4.3,4-4.6,6.9
						c-0.2,3,0.2,6.1-0.9,8.1l-2.2-1.3c-3,13.3,3.3,15-0.4,28.8l2.2-1c2.1,4.4,1.1,5.8-0.3,7.2c-1.3,1.4-2.9,2.8-1.3,7l-6.6,1.3
						c0.1,1.3,0.4,3.2,0.7,5.4c0.4,2.2,0.8,4.6,1.2,7.2c0.4,2.6,0.8,5.3,1.1,7.9c0.1,1.3,0.3,2.6,0.4,3.9c0.1,1.3,0.2,2.5,0.3,3.6
						c-2.2-2.8-3.4-7-4.4-11.3c-1-4.4-1.7-9-2.6-12.5c-0.8,5.1-1.8,17.6,1,20.5c-0.4-2.1-1.6-4.9-0.3-6.8c4,6.9,6,15.2,5.1,25.2
						c-3-0.6-4.9,0.7-5.9,3.2c-1.1,2.5-1.5,6.1-1.8,10c-0.2,2-0.3,4-0.5,6c-0.1,1-0.2,2-0.3,3c-0.1,1-0.2,1.9-0.3,2.9
						c-0.6,3.7-1.7,6.9-4,8.9c0.6,2.3,1.1,4.6,1.4,6.8c0.4,2.3,0.7,4.6,0.9,6.9c0.2,2.3,0.3,4.6,0.3,6.9c0,1.2,0,2.3,0,3.5
						c0,1.2,0,2.4,0,3.6c0.1,4.8,0.1,9.7,0.3,14.7c0.1,1.3,0.1,2.5,0.2,3.8c0.1,1.3,0.3,2.5,0.5,3.8c0.4,2.6,0.8,5.2,1.4,7.8
						c8-9.2,1.4,6.1,10.7,2.9c0.7,2.4,1.2,4,1.4,5.1c0.2,1.1,0.1,1.7-0.1,2c-0.8,5.2-1.6,10.5-2.3,15.9c-0.9,2.1-1.7,1.1-2.6-0.3
						c-0.8-1.4-1.6-3.3-2.6-2.8c0.2,1.4,0.3,2.5,0.4,3.4c0.1,0.9,0.1,1.6,0,2.2c-0.2,1.1-0.6,1.7-1.1,2.2c-1,1-2.4,1.6-2.7,5.5
						c3-2.4,5.9,2.3,6.3,8.8l1.9-9.8c2.3,3.3,3.2,5.9,3.4,8.1c0.2,2.2-0.2,4.1-0.7,6c-0.9,3.8-1.8,7.7,3.2,14.2l-4.5-3.6
						c2,3.6,4.8,10.4,8.2,17c0.8,1.6,1.7,3.3,2.7,4.8c1,1.5,2.1,2.9,3.2,4.2c2.2,2.6,4.6,4.6,7.2,5.5c-0.5,1.7-2.1,4.6-4.2,1.7
						c0.9,2.2,1.8,4.5,3.1,6.6c1.3,2.2,2.6,4.3,4.1,6.4c2.9,4.2,6,8.4,9.3,12.3c3.2,3.9,6.2,7.8,8.7,11.6c2.6,3.7,4.6,7.4,5.6,11.1
						l-2.8,0.1c1.2,1.3,3,2,4.5,3c0.8,0.5,1.4,1.1,2,1.8c0.6,0.7,1,1.7,1.1,2.9c-0.9,0.4-2.8,0.2-2,1.6c1.8,1.1,8.9,5.2,10.4,9.9
						l-4.5-1.7c0.5,1.1,1.1,2.1,1.6,3c0.3,0.5,0.6,0.9,0.8,1.4c0.3,0.4,0.6,0.9,0.9,1.3c1.3,1.7,2.6,3.1,3.9,4.5
						c2.7,2.7,5.6,4.8,8.6,6.7c3,1.9,6.1,3.5,9.1,5.3c1.5,0.9,3,1.9,4.5,2.9c1.5,1,2.9,2.3,4.4,3.5c-2.6,2.4-1.9,6.5,0.1,10.9
						c1,2.2,2.3,4.4,3.6,6.5c1.3,2.1,2.8,3.9,3.9,5.4l-0.9,0.5c3.8,3.9,7.6,7.2,11.5,10.1c4,2.7,8,5.1,12,7.3
						c4,2.3,8.2,4.1,12.4,6.1c4.2,2,8.3,4.2,12.8,6.4c1.4,3.3,4.1,6.7,7.6,10.1c0.4,0.4,0.9,0.8,1.4,1.3c0.5,0.4,1,0.8,1.5,1.2
						c1,0.8,2.1,1.6,3.1,2.4c2.2,1.6,4.5,3.2,6.8,4.9c1.2,0.8,2.4,1.6,3.6,2.4c1.2,0.8,2.5,1.5,3.7,2.3c2.5,1.5,5,3.1,7.4,4.7
						c4.8,3.2,9.6,6.2,13.6,9.4c-2.1-2.5,3-4.7,6.4-3.7c0.9,0.8,2.2,1.4,3.5,1.7c1.4,0.4,2.9,0.5,4.2,0.8c2.6,0.5,4.2,1.3,2.5,4.1
						l-1.5-0.8c0.6,7.2,10.1,9.9,17.1,12.6l4.3-7.4c3.4,4.6,8.2,8,13.7,10.1c2.7,1.1,5.6,2,8.5,2.8c1.5,0.4,2.9,0.8,4.4,1.1
						c1.5,0.3,2.9,0.5,4.4,0.8c2.9,0.5,5.7,1,8.4,1.5c1.3,0.3,2.6,0.5,3.9,0.8c1.2,0.3,2.4,0.6,3.6,0.9c4.6,1.2,8.2,3.1,10.3,6.4
						c1.3-0.2,2.6-0.4,3.9-0.4c1.3,0,2.7,0,4,0c2.7,0,5.4-0.1,7.9-0.7l-1.1,4.4c3.2,0.9,6,1.6,8.6,2.3c1.3,0.4,2.6,0.6,3.9,0.8
						c1.3,0.2,2.6,0.5,3.9,0.7c2.6,0.4,5.4,0.8,8.5,1.1c1.6,0.2,3.2,0.3,5,0.4c1.8,0.1,3.7,0.1,5.7,0.1l-3.6,3
						c4.6,0.5,7.8-2.5,10.8-5.6c1.5-1.6,3-3.1,4.6-4.3c0.8-0.6,1.6-1.1,2.5-1.4c0.9-0.3,1.8-0.6,2.9-0.6l2.2,6.8
						c4,0.1,8,0.5,11.9,1.1l3,0.4l3,0.3c2,0.2,4,0.4,6,0.5c4,0.2,8,0.4,12-0.1c4-0.6,7.9-1.7,11.7-3.5c-0.2,1-0.5,3-3,3.5
						c7.5,0,29.7,1.3,25.6-7.5c0.3,1.5,1.4,2.1,3.1,2.2c1.7,0.1,4-0.6,6.4-1.5c2.5-0.9,5.1-2.1,7.7-3.4c2.5-1.3,4.9-2.5,6.9-3.7
						l-0.4,4.7c5.9-7.2,5.7-8.8,15-12.5c1.2,0,1.9,0.7,1.9,1.4c0,0.7-0.7,1.4-2.4,1.2c2.1,0.1,3.4-0.2,4.4-0.8c1-0.5,1.6-1.3,2.3-2
						c1.4-1.5,3-3,7.9-3.2l-2.6,3.7c4-0.9,5.7-1.7,6.8-2.9c1.1-1.1,1.7-2.5,3.3-4.8c4.2-3.3,14.8-3.8,17.3-0.5
						c0.2-2.7,3.1-7.4,7.9-8.1c1.2,1.2-0.1,2.7-0.7,3.4c3.4-0.5,6.2-1.6,8.6-2.8c2.4-1.3,4.3-2.9,6.1-4.3c3.6-2.9,6.8-5.3,12-5.4
						c0.8,1.2,1.7,1.6,2.6,1.7c-2.4,1.3-4.8,2.2-6.9,3.2c-2.1,0.9-4.1,1.7-5.6,2.4c-3.2,1.3-5,2-4.7,1.7c1.6,3.8,10,0.8,5.8,8.9
						c2.7-2.9,6.1-7.1,9.8-10.8c3.7-3.8,7.7-7.3,12-8.4c0.6,0.2,1.1,0.3,1.7,0.7l-0.6,0.8c2-0.6,3.4-1.7,4.5-3.1
						c2.7-0.8,4.5-1.2,6.8-2.5c1.3,1.2,3.7,0.4,6.3-1.1c1.3-0.7,2.6-1.6,3.9-2.4c1.3-0.8,2.4-1.7,3.3-2.2c-2.7-3.6,2.5-6.1-3.9-6.4
						c0.7-0.1-0.4,0.9-2.8,2.6c-0.5,0.4-1.1,0.9-1.4,1.3c0-0.1,0-0.3,0.1-0.5c-2.4,1.5-5.6,3.5-9.2,5.7c1.9-3.7,4-7.1,9.4-7.4
						c0.4-3.6,0.9-7.5,1.3-9.4c4.1,1.1,9.1,0.8,13.4,0.5c1.1-0.1,2.2-0.1,3.1-0.2c1-0.1,1.9-0.1,2.7-0.2c1.7,0,3.1,0.2,3.9,0.7
						c2.4-2.5,5.1-4.9,7.9-7.4c0.7-0.6,1.4-1.2,2.1-1.9l2-2c1.3-1.3,2.6-2.7,3.9-4c2.5-2.7,4.7-5.4,6.4-8.2c1.6-2.9,2.6-5.8,2.8-8.8
						c2.1-3.3,4.8-1,6.8-0.9c-1.1,2.1-3.1,3.7-3.2,5.4c1.1-1.6,2.6-3.4,4.3-5.3c0.8-0.9,1.7-1.8,2.6-2.8c0.8-1,1.6-1.9,2.4-2.9
						c3.1-3.9,5.3-7.5,3.8-10.3c4.3-2.3,4.3-0.4,4.3,0.8c0,0.6,0,1.1,0.5,0.8c0.5-0.3,1.7-1.3,3.7-3.9l0.1,2.5
						c6.1-3,10.4-7.1,13.6-11.7c3.1-4.8,5.2-10,7.4-15.1c0.6-1.3,1.1-2.6,1.6-3.9c0.5-1.3,1.1-2.6,1.7-3.9c1.2-2.6,2.5-5.1,4.1-7.5
						c1.7-2.4,3.4-4.8,5.7-7.1c2.3-2.3,4.9-4.5,8.2-6.5c-1.7,1.2-2.6,1.8-3.6,1.5c1.4-1.5,2.8-2.9,4.2-4.5c1.3-1.6,2.5-3.2,3.7-4.9
						c2.4-3.3,4.7-6.7,6.9-10.2c2-3.6,3.9-7.3,5.8-10.9c0.9-1.8,1.9-3.7,2.8-5.6l2.5-5.7c1.7-3.8,3.4-7.5,5.1-11.3
						c1.6-3.8,3.3-7.5,5.1-11.2c0.9-1.8,1.9-3.6,2.8-5.4c0.9-1.8,1.8-3.6,2.8-5.4c2-3.6,4.2-7,6.6-10.4c4.5-8.1,1.3-10.3,0.3-16.3
						l5.2-0.4c-0.8-3.6-1.8-7.1-2.7-10.7c-0.1-3.5,1-6.4,2.6-9.1c1.5-2.7,3.5-5.3,5.4-8.1c1.9-2.8,3.8-5.7,4.9-9.1
						c1-3.4,1.2-7.3,0.1-11.8l-3.6,1.6c0.4-1.5,0.7-3.4,1-5.4c0.1-1,0.3-2.1,0.4-3.1c0.1-0.5,0.1-1,0.2-1.5c0-0.5,0.1-1,0.1-1.5
						c0.4-3.9,1.1-6.8,2.9-6.1c-0.5-0.7-3.1-2.4-1.1-4.5l2.5,0.1c-0.4-2.6-0.8-5.1-1.3-7.6L900,414c1.3-5.6,3.8-5,6.2-5.1
						c1.2,0,2.3-0.2,3.3-1.5c0.9-1.3,1.8-3.6,2-7.9c-0.4-3.2-2.1-7.8-4-11.2c-1.8-3.4-3.8-5.7-4.7-4.5c-0.2,2.5-1.7,6.4-4.3,6.5
						l-1.2-5.6c-3.7-0.5-7.5-1.8-11-1.3c-3.5,0.5-6.8,2.8-9.5,9.3l4.3,9.3l-3.8,2.7c0-1.3,0.2-2.6,0.1-3.8l0-3.8
						c-1.8,2.1-1.8,3.9-1.4,5.5c0.5,1.6,1.6,3.2,2.5,4.8c-2,0.6-3.4,1.8-4.3,3.5c2.1,3.1,4.3,6.3,6.4,9.6c-1.5,0.4-2.8-0.8-4.1-1.3
						c-1.3-0.5-2.3-0.4-3.5,2.5c1.4,2.2,3.1,1.4,4.7,0.9c1.6-0.5,3-0.7,3.6,2.9c-3.9,4-6.5,2.3-4.3,7.8c-2,0.5-3.1-0.8-3.6-2.9
						c0.4,1.2,0.6,2.6,0.7,4c0.1,1.4,0.1,2.9,0.1,4.2c0,2.8,0.2,5.3,1.9,6.8c-2.5,1.9-2.9,5.7-3.5,8.9c-0.7,3.2-1.8,5.6-5.2,4.6
						c1.3,1.7,3.6,9,2.9,13.3c-3.3-4.8-4.1-0.9-5.7,3.4c-1.5,4.4-3.2,9.4-7.2,7.1c0.7,0.9,1.2,2,1.6,3.1c0.3,1.1,0.5,2.3,0.5,3.5
						c0,2.4-0.6,5.1-1.3,7.8c-0.7,2.7-1.5,5.6-2.2,8.4c-0.8,2.8-1.3,5.6-1.2,8.3c-0.4-0.7-1.1-2.2-0.4-2.9c-2.7,5-5.4,5.7-8,8.5
						c5.5,3.1,3.2,11.7,4.7,17.8c-4.2,1.9-5.4,0.1-6.4-2.1c-1-2.3-1.7-5-4.7-5.3c2.4,0.9,2.3,4.2,2.2,7.2c-0.2,2.9-0.4,5.7,2,5.6
						c-5.8,3.1-3.7,3.3-9.6,3.3c6.5,4.5-1,5,1,11.1c-7.2,4.8-7.4-1.9-9.5,6.5c-2,1.1-2.7-0.3-2.9-2
						C823,559.7,823.3,557.7,823.3,557.7z M689.5,702.9C689.5,702.8,689.5,702.8,689.5,702.9c1.5-1,2.8-1.7,3.6-2.2
						C692.4,701.1,691.3,701.7,689.5,702.9z M674.2,710.4c2-0.7,4.4-1.7,6.8-2.9c1.2,1.1,1.4,2.9-0.3,3.5
						C681.2,709.7,677.1,710.6,674.2,710.4z M722.1,720.6c-2.2,2-3.5,1.7-4.3,1.1c1.2-0.8,2.5-1.7,4.2-3c0-0.2,0-0.4,0-0.6
						C722.1,718.9,722.2,719.8,722.1,720.6z"/>
					<path class="st0" d="M723.6,712.9c0.3-0.3,0.4-0.6,0.8-0.9c-0.7,0-1.4,0-2,0c-0.1,0.6-0.1,1.2-0.2,1.7
						C722.7,713.5,723.2,713.2,723.6,712.9z"/>
					<path class="st0" d="M745.8,76.9l-0.2-0.3c0.2,0.3,0.3,0.6,0.3,1C745.7,77.3,745.8,77.1,745.8,76.9z"/>
					<polygon class="st0" points="445.5,725.4 445.2,726.5 446.9,725.9 					"/>
					<path class="st0" d="M805.7,154.4c-0.2,0.4-0.3,0.9-0.1,1.7C805.8,155.9,805.8,155.2,805.7,154.4z"/>
					<path class="st0" d="M828.9,188.2l1.8,5.7C830.1,191.3,829.5,189.5,828.9,188.2z"/>
					<path class="st0" d="M842.8,216.4c0.9,0,1.5-0.2,2-0.4c0,0,0,0,0-0.1L842.8,216.4z"/>
					<path class="st0" d="M421.2,44.6c-0.4,0.1-0.8,0.3-1.1,0.5C417.7,46.8,419.4,45.9,421.2,44.6z"/>
					<path class="st0" d="M566.6,21.3c-1.7,0.6-3.3,1.2-5,1.5C564.2,23.4,566.3,23.8,566.6,21.3z"/>
					<path class="st0" d="M285.4,129.6C285.4,129.6,285.4,129.6,285.4,129.6c-0.3,0.2-0.5,0.4-0.8,0.6L285.4,129.6z"/>
					<path class="st0" d="M554.7,22.2c2.6,1.1,4.8,1.1,6.9,0.6C559.5,22.3,557,21.7,554.7,22.2z"/>
					<path class="st0" d="M879.9,345.4l0,1.5c0.3-0.1,0.5,0,0.7,0.1C880.4,346.5,880.2,346,879.9,345.4z"/>
					<path class="st0" d="M880.7,347l0.7,1.6C881.3,347.9,881.2,347.2,880.7,347z"/>
					<path class="st0" d="M882.7,352.1l-1.4-3.4C881.4,349.9,881.4,351.4,882.7,352.1z"/>
					<path class="st0" d="M875.2,304.4l-1.7-0.1C873.9,304.5,874.5,304.5,875.2,304.4z"/>
					<path class="st0" d="M871.9,292.3c0.3,1.5-0.2,3.5-0.4,5.7c-0.2,2.1-0.2,4.4,0.7,6.3l1.4,0.1c-1.4-0.7-1-3.1-0.6-5.7
						C873.3,296,873.6,293.3,871.9,292.3z"/>
					<path class="st0" d="M873.4,234.8c1.1,3.6,1.9,7.2,2.9,10.8c0.9-2.4,2.1-5.7,4.4-1.1c-0.2-7.5-0.8-6.5-2-5.3
						C877.6,240.4,875.9,241.7,873.4,234.8z"/>
					<path class="st0" d="M860.7,202.6c3.5,5,2.2-1.2,3.2-1.4c-1.5-1.4-2.6-2.1-3.1-2C860.3,199.2,860.4,200.2,860.7,202.6z"/>
					<path class="st0" d="M680.2,34.9l2.2-3.5C677.9,30.1,681.7,32.9,680.2,34.9z"/>
					<path class="st0" d="M629.2,38.4c1.1,1.2,2.2,2.4,3.3,3.7l3.1-2.9l-3.2-0.4C631.3,38.5,630.2,38.5,629.2,38.4z"/>
					<polygon class="st0" points="609.6,3.2 611.8,3.1 603.8,2.7 					"/>
					<path class="st0" d="M224.4,137l4.8,2.1C230.6,136.2,226.7,132,224.4,137z"/>
					<path class="st0" d="M149.8,303.2c-1.4,0.7-2.9,2.2-3.6,4.1c-0.7,1.8-0.9,3.9,0,5.7c0.5-2,1.5-3.9,2.2-5.6
						C149.2,305.7,149.9,304.2,149.8,303.2z"/>
					<path class="st0" d="M389,750.8l-4.1,0.2c2.4,0.4,4.7,0.9,7.1,1.2C391,751.7,390,751.3,389,750.8z"/>
				</g>
			</g>
		</g>
	</g>
</g>
<path class="st0" d="M764.2,383.4c-7.9-9-19.3-14.9-34.3-17.7c10.8-3.6,19.3-9.5,25.6-17.7c6.3-8.2,9.5-18.3,9.5-30.3
	c0-17.2-6.4-30.5-19-39.8c-12.7-9.3-30.5-14-53.2-14H605v198.4h-73.2L531.5,264h-12.6L425,426.3L331.1,264h-12.9v210h15V294.9
	l87.9,151.2h7.5l87.9-151.8l0.3,179.7h8.5c0.4,0.2,0.7,0.2,1.1,0.2h83.4c0.4,0,0.8-0.1,1.1-0.2h87.5c25.6,0,44.9-4.8,57.9-14.4
	c13-9.6,19.5-23.3,19.5-41.1C776,404.1,772,392.4,764.2,383.4z M620.3,277.2H692c18.4,0,32.6,3.6,42.5,10.6
	c9.9,7.1,14.9,17.5,14.9,31c0,13.8-5,24.3-14.9,31.4c-9.9,7.1-24.1,10.6-42.5,10.6h-71.7V277.2z M745,450.2
	c-10.5,7.1-26,10.6-46.3,10.6h-78.3v-86.7h78.3c20.4,0,35.8,3.5,46.3,10.5c10.5,7,15.8,17.9,15.8,32.7
	C760.7,432.1,755.5,443.1,745,450.2z"/>
</svg>
